<mxfile host="Electron" agent="Mozilla/5.0 (Windows NT 10.0; Win64; x64) AppleWebKit/537.36 (KHTML, like Gecko) draw.io/26.1.1 Chrome/132.0.6834.210 Electron/34.3.3 Safari/537.36" version="26.1.1">
  <diagram name="Page-1" id="c4cYYdI5ytK7y86xmKpF">
    <mxGraphModel dx="1286" dy="859" grid="1" gridSize="10" guides="1" tooltips="1" connect="1" arrows="1" fold="1" page="1" pageScale="1" pageWidth="850" pageHeight="1100" math="0" shadow="0">
      <root>
        <mxCell id="0" />
        <mxCell id="1" parent="0" />
        <mxCell id="hrG1Q1oF-J7TZYXYsf8C-2" value="&lt;b&gt;&lt;font style=&quot;font-size: 14px;&quot;&gt;aws-config&lt;/font&gt;&lt;/b&gt;&lt;div&gt;Git Repo&lt;/div&gt;" style="verticalLabelPosition=bottom;html=1;verticalAlign=top;align=center;strokeColor=none;fillColor=#00BEF2;shape=mxgraph.azure.git_repository;" parent="1" vertex="1">
          <mxGeometry x="190" y="210" width="50" height="50" as="geometry" />
        </mxCell>
        <mxCell id="hrG1Q1oF-J7TZYXYsf8C-3" value="" style="shape=image;verticalLabelPosition=bottom;labelBackgroundColor=default;verticalAlign=top;aspect=fixed;imageAspect=0;image=data:image/webp,UklGRtBJAABXRUJQVlA4WAoAAAAYAAAAWwMAWwMAQUxQSOcoAAABHKMBkzD/vxvQZIyICRDvqCLoOBtdNmzcia1X9Idt2zI7zf+d133dK0GSkECgAQIhOMElJYVSw90qSKG40xan7oX6p4ZrDeoNUAjuHtw1kAQCJEgMwrqv+zr/WPM8M/PMmjXTlc/n+42ICVDcto2z/+JpV153YERMAMUAANM2UgQWg21JBpkp4KR0uP9spQH8EBETgP/f//zP//zP//zP//zP//zP//zP//zP//zP//zP//zP//zP//zP//zP//zP//zP//zP//zP//zP//zP//zP//zP//zP//zP//zP//zP//zP//zP//zP//zP//zP//zP//zP//zP//z/KQy62EqIisVUQwwARn1micVOJMQAYMwX/vj2ayMgi5VIFADjj7rmHWZOH/4/MZGgGmNUDSEEkdBXNcaoIYh0lQCdcMotC+nMvf/7kqAxBjRbYtQgXSHBCt9/MJE0c2bO+F9WUA2oGUeuvfVeh5/6499e/rerb7j59jtuufm6/1xx4a++85WDd500fnhEzRC1+6PYg5lmTvJ/WiEGABi+zi6nn3fdU2/3suG+aPbjUy44fa8NlgEgUbo+u7LXWft/VxogWH6X7095ObEwp5SSlU4pJXMW5ulTTt8kQKJ0eXZj5v+2JAZg/AlT3mHfbMlydmeD3d2zJcskafcfvywkLtYQFD27X/0BnTlZZnWzJXe++a2R0LD4QgjY7SE6zZyVdzPnK59HCIsrKFb8Jz0bW9XNeeWy0MUTFBNfpRlbORuf3QBxcQTFVu/S2OqJs7eGLn4QsOoMGlvf+M5E6GIHgn8xsThbSim3BI2vjENYzECxBzMLPbNmzq3AxBsUixkIptAKcuaMP37jtN8+6sytwMRToYMoQiytkBijFEiM2hEErLeIXitz7knDIYDu9CStFZxzVkPoSgTpSjS0BDrEiOOZWDNzxmYIqqoBw65hbgEm/gLafQgxoLmdWsB+l/zmd4W/ueh4rHXO7385GgJAMOonF3x3CcjAL+CPBc4Pt0GPAIBEjHiEuQWcb4yBdBdEFYLxoyBdB8X5TCw0TsGnaNwXCkCxN/nKiE4AeJS5hvGX6EFhD3aie/VoPBLaTVAVYNT+/0qTELoOgjEbrDthje3f50Hj1l9v/dWwjS/i+TUC/ky+MLwDECz7Zi1n7wYIRRC5n9YS/0HoGmgUYKmdLn2TmVt2IWoGjP+Qn4QCim04ny8sCYFgzJwPOK0TCFjnfXof4yMBZSN+xtQCmTOGQ7oDIoBO+sVLdObeLoWEELHmh/w0ekKI2Jp3PciPQaH4Eq9Mrw7rCLbwoquhZRTH0FrA6RsidAcQ1v/2Y5nMKTN3KQAErP4hPwkFFFtz8vf4HSgCrlvwJU7rBBSfpBdMrufIlmDm7tBugGD4fzPpKZPsnlzzUd4NBKzK/2zJlzuD7ZgLpqJ0xA+ZWsF4CGI3IGDsO+w1Z82uyS14mWuhB0dzv034UmewIzP7OheuhVAi4FZaKyQe0x0QrPQWnYVdkzvxOx6FHtzGZSd1GjR+Fz1FER8nvTWO7RrM6cLcge35L2BdTsGnOg7n3I3RIzWi9NxO42Cb27HMjLljcAaPwGc6DmY+PR4hxhgD9DJmDrq5DTifu+NhG4dPdR7MfP2ACECw+R00DsrZlb9Yg1cDn+xAmDOf/PnRh33rpl5mDs5ZZu4jZ/Ng4BOdCHNmTc8cNPN+0Va8BRF/5Ly3x/Z5oQMhczJL5hw0s8aH/HStrXkbevB58l/owSc5bUQn0vKDLQQrXnPTRghAwPp3/RQBy//tjl3Rgw1vv2zJxT4aKYCgYxz8IyFIQQh9QggAJITFQTrbxV96rZp5sYydaexPFy8ImHjvzbdW8bYbnqMvdlHdiKOZBjQiIajGGKOqBpGWEJUOSEJQjTU1BOkvRIJqrKkaRLoKUs0eHDNwEVVV1CuqKtUSVfSr/ZPUbqWgKqhTVaXFJKgq6lbVzkwkNFCrORTHVktC/dJPicaAvmHkKpts+9lDTzjtuB13mLT28j0ARLUyohHAsO1GQSqisXSoQ2LNHqxSx1YYEktLxSTEqEFQO2gM0goaBUAYvd72+x978hmnfvnQPSeOXRIAVKVVRGNA3zh67U989oivnn76V4/5wnbrjY4AJGqHJSEqWjfi6Go1NESV/kaiAsAymx/008lTZy5iSX/7sX+eNmkJIGgVRCOAJbf9/YwF4xEqUkXBSnVsgYDGNytERe2ekSus+JFlFAAkhoqJBkAnHHnpA7NZ9oPnrvve9ssCiKEFJCoALLHR586a/OhsZ9k5D19xwiY9QNAOSqMA0BHjNtysNSeu8SNadQTjJm66WfkNVl4SgMR+RRXA0tt847rXjLVzNkspZ2ff/PzPNgA0NEujAEM+/qsX3PneuKrIYd88/YzC07+9EUIJwcjTzjzjjDPOOPPUHy0s4/zdSWeeUXz6mSePglQkRAHQs9Zep50/5ZGXZr4x+82Zz912/nGbDQFUq6QBmPCdhxexb86WUkqWnX3f+Os+wyAaKqYKYKmPnfLvl3tZ07OllJKZs296/IcbAEE7JA3Akh897cqHZi8yb1lWs4biIvZ6eXt/+o0//FhE0P5CYgBG7HnZdJJ0s2TuLOs5mZNp8iSINgno2fInz5DMvZxbEUF4kpmFxqOgJQJWT3Q22/n+OghVkBiAsNYRf34usV5/9uwJgIaqBIXuMqWXdEvmzpKeLWU6p39vLESlOhIDMGrfP7xKkm6WsrO0WzIn05TtAZUOKCiw4U+fzWyHBRczsYE+9aAeaP+gAdjk1zPo9GTubKzn5LRLxyBKM8Km330sk54yvTKAPMIPU+EiHlrH+A+sN9Wsw1LZ3jx3rSpIDMD4k+96n07mlMxyzp5ztmR0fnjl+tBQDRVsezfpKTsbmlN2vnvWctBQEYkBMvGc1+n0ZNnZ4JycnLIRNHQ8GrDl5F7SLWVv5WpdxF6v25I7H5iIKK2nAbrrTYnM5s7mmnHWPlBpWMDGme4pk6zWE8wsNB5eT6Kz2c6FVYgBcad/L6TTUnbW69mci85eErECErHK38hsziZmc846TEQrEQOG7HObkWbOJlvmom+paGcjER+52JhTZlssuJiJjbTERcdBpcVEIbvdR88ps4Juzh8jhMZtwWSsPbBQxZD9ppKezNloM05dB7FpQbHfHJqx2W7Oa8YiNk8DevZ7lJ6Ts7x7I0gzTlkB2slIxG6vMZuzTTaJtMzvQVsrBGx6A5nNWdqtrJcis/FPPSIN25zOgUgEdn+YnpOzmZ44+5OITQoYcg7dWN6z9c1eiszG17dHlOaICnaZSs/mLM7WN2czs1wXPfGpNaCdiyi+RTdn22wac+I3oK2kGPGLXpqxrFtyls/Jy9AT/9Ej0qgt+qEP3XLNOnJp4/wmjQQ2uoFuxrJesw7SuGAHaFMUo29hyizrllmcUy5DmucTodIEiQHrX0daZqGbsV6zOsjEF1dH6FQk4BymzDbaPHrm56AtIxFbPUMzlnQzkpz9wD9/9bXjDjv82K+de8tbpFsZMvEyhPaR6Gy2c+E6zRnW8/0PaMZit2Tsm5PVQeN7k6BNUIx7lMlZ0oykvXL3vy/5223PL6IzWxlm44+g0rAQsczZ79OMhTmRzC9e84sT9t3hU5/e6YAzL394EZmtDiY+vCykQ1H8nr3OAQUz31oToUVEcWIvzVmczcl3rjp50uiAksvtesX7zF6Gid+DtgfByg8//ljfR5+2ci888ljJR5+4b1xTXv7UVGZjoadMkv7B/AVGMls5GqeNRWhYwKrPMLFkzuRrl3xxveHou+T4fc59hcy5BD3xZ9BGacAuLzEbC7ORC/97/AZLomxc84T7SfNyTPwrQmei+BaTc4BB478grSEBv6ZlFufsXHDNgaMBQLQ4QLDO35hzGc/cB9oWAISairFz6EWZkxBDaZSvg1y0kOasnY3Od27+4Rc+ttYqq22yx/ceMGYvxcSrIY0KWP4RJpY05z37jwAAUdUACJb+/N10K0FP/CG0MYplL6abs3bO5DOnjYMAWlaAsP29zF6OiYdCOxHF3szOAQcz94W2gohcxOQsdHM+d+Z4ACGGgLJBVbD/e8wlmDlzVUibqC1YqY4tEVCfomfWNnPO/dvnx6Bk2Ooa5lyKxuOhjREMvZ6JxZ74wr4B0BgEfSVEBcIXXqWVoBtPQGyEYNuXaJmFlvnY/ksAIQZB6RAF4avvM5fLnLYcpPMQrDKTmQOSqT2QVsC5TCz2zMf2WwIIUdBAjdjkVeYSNP4doU1IzYCV65gElXBTYc7ks6esDEGIUUMIIcYg2O9t5lLON8ZCGqI4j4nFnnn+cGgUlJcYMOovNC+ie9oZWp/gB3RjsXPmkUMgMaCBoopJM5hLMfFMaOcRcDkTByLM3A9aPcXBTCx2zv/qEEgMaLD0YP1ZzCVo3A/aHmoLVqpjSwTUF7k5Hz1wCUBjQFmN2Ggacxkm/gzaiIgjaCz2nI9HUEEDY8B3mL2ImTPHIdQj6JnOxLIXLgeNggZLD9Z+mblU5tNLQjqNgO2YOTAx3gZpha+Vcc7eHBoFTezBtr30EpnPjoQMnNwyn//iEEgMqLsHE2Yxl3HOXgVSX8BGc+lF7vmLiAGNDRGn0kow8b+QBrzCXJR5OlQFTYzY5B16GTq3h3YagptoAxR3fhyhBc6kFRlvxxBBc3vwTVoJGr8OHTBl4ztnLIUQBY3swc7ZvQQTT4XWJ+EWGoszT0SPoNEScTatBI0nQOubXu5z6EFze/BF5lKJZyN2GIrt6Byg0PhbaAt8nanMnQhossiQB5lLOF8fAxkgmfOKVRGioMERP6WVyXwA9SuOp7HYeAEUTZQg19BKOGevjtCcL0CbBMU/aWWMN0M6jIAraQOWzJeHQ1rsjuZBsQu9BI3fhA6I3PjSrpAoaLhg2ReZSzhtY4Q6BGNn0YsynxoJaQYCVnuDXkTj5c36XPMCNv2QXiJz+hBIRxGw2nv09nVRs+jcCdrvQXAjrUTmS6MgAyAnz18GGtBMxXG0EjQeD61D8Ssay+wJRXMjjqGVcOatEVoLAX+nlXC+t1KHoTiWxrZ0TJ+Lm5b463ag2Ju5BI2HQQc+zg8/i6BormDUK8wlEv9UT8Da8+hFxv8ioOnxHloRjZNbTrEXc6n310boKAKuaU/GwxAD/ti0zMcCpN8TLPE0c6lbIQOfzOlLQ9FsxS9oJYxTFVJK8SsmFju3gzZNsQdzCadvjdBaguVm0cssWq+zEKzwOnM7yty7z2Rak5yLNkDo96D4MVMJZ+9GCAOgGSMhTQvYimWds5cvJ1jxDXqR8U4IKih30opovLzVILia1rkoPsPMNuzkR6HAA8xNovEwaP8XsBVLG78BHQgNr4BgiWeYy/jaCGUUX6axzDHQCigOKuV8bzxCa0X8gKmT+QatPb07GgHDZlXh4nYgWOI55lJ3A9IRQPEnWgnnVuWAe5iLnO+uAqmAYOR05iIaT4K2luJgWucScFV7Mt4BKDY1erMyHw+Qfg+KS5lKOBetg9ApnMRUagdoiYCJzpLGaxBQRcW5TCUy70HZFtmO7p2KYOmXmdvTjxEVhzKx2c6FayC0g8NpJWg8ErFT2JW5ROaupSK+Qyv1VWhFdqF7kfPD9RFaKmAzsmMJWN/pbcidkxAUf6E1jZl7QPu/gI1JL5F4KbQzCNjU6A0S4I4yTm6BUAnBqNeZi2g8AdpiEzoYxQE0tmHjnUDAcjOYm2f8AWL/Jxj5KnOJzKcCpEMYN79hAasuoBdlThsOqQQCrmIq9S+EFlu3g4k4i6k9HQhVHEBjFf6D0P8h4E5aCeeCNRA6AsHoOQ1T7MvMYuONCKhmxDdoJTJfGQHpVgRcTWtDxvsiRHBjJTKfXQLS/ykuLsXM3aAdwog3mRsUcRZTicRfQiui2IG5hJObInQpBOF55jbk3B6q+DTdK+BcNA6hHXyNqUzi6R3DsDcaFnAtrdQxiBUJWH0hvYjGLyF2KQJWfY/efhJ/CkXAdTRW0bkttP+L2L+c8bKORxBfZC7yzF2gFREs+QJzicSzuxaKrejtJ/HGIZCIA5hZycSjEPs/xWfoXupOhA4nYNX36CVomyJUBAF30koY/4bQpYj4PBPbbeIjyyMEjJlWnZ+2g4CNE8tkPr8EpLNRfJTl5o+FVEXx5zruR3G3QXFG28m9vH9FBCj+RmM1jX9DaAerzivlnL1i57MrjWXeGlalnzOVyHw1QroVv6G1FbfMvy8DRcSZNFbmAUj/Jxj5FnMpWxeh0zmEqUTmS0OqdGYp55zluxd/bydu5nznGISAHhxE96pkThsCaQM9M0sx86Odz0l1PBaqE3FsHQtWR+hOBNzaSjlbpZPRufC8VaFBevD5XndWZ/aYtiDP17MjtNP5Tinj/ajSwXX0btCtAB5olZzMWfnex76zOkRFI440d1bW+cG6CP0egMfq+Xzn8+M67kJ1I/arI2/WpRDEJ5hbwJOTzG89M/Xeeyp72z9+fsgGAdAgET0/Z3ZWiVu0hwfLGQ/tfH5Wxx2V+hytFCd2LZZ8rgXcnHzxooM3HTMEVZcYRAMm3EVzVinzk9B2cC+t3LGdz09a6PNMpXyLrsWwF6uXnXMv+/QS6CuhwqpRQ1TBqB8spDkrbdypPdxdz4mdz4/quLtS+9dhm3YvXqqaGxf+n3EQxKhBVSujqjEKBGNOn8FsrHjibu3hnnq+2vl8q1TmVECqc3AdiyZ0LZZ6oWI587p1IaqiMaD6y+5+2dv07KzePu3h/nq+0vmcVMdTWqWj6pg/vmsx9JlqGRccA2iQKACGjd9w8y2qOvHjux37q5veJmmZ1U/csz08wlzuuM7n0DqmD63SSXXMGQ3pUsjDlTK+vAWiQgWy6deue2kBK5/N2YqJu7YFeaaeQzuf3WklnG+PrI7iu6Uyp/d0KSC4i1Yd49SVEREUQw+8x0jSc5UtmTtb07h9GxDEGeUyP9f5bE33MgtXR6jOr+t4CMXdBsW1FTI+uDwiQsBOj9E9WXa2R3du1RZGvlXPtp1OwNoLWMq3rNKfaCWMkxG6FpdWJ/OFsVAohl9EmrGNOtNGCP1ewGrz6WWcmyJ0NoLhM5mLaNwbWpWAm0sl/hqxa/HjyjjnTUSEYvzDtMy26nx31bawWS7lXDC+04HgPlqJxC8jVgV4jLnUiV2Mo5gqknk0IhQTXmFim82cvjSk31PsxMySmTNGQTocxWVMpX4HrYhguddKObeDdi12plXD+E8oAsZPY2L7eQiCfi/icKYyxqkQdDgRJ5cy3oJQkYD1jF7kXLAyQpciYMMP6VVwzl0XQTDsPia2XeM/EPo/xdn1/BXa6Si2pZfInDYCUg3FTswsNk5VSJdCMHIWcxWMZyMi4PdMbL+JP0ZsB5NpZRK/2fkIln+bXuT0TRCqEXE6rUTi+VB0KQDcXwnnnHEQxY7MbMPGA9uAYMhTzGUyd+98ILiJVkTjkdBqKP7MVMJ4QBdDcTFTBYznQoF4b1ty+iYI/V7Amh/QSzjnj0dowrzxnUHEt+v4c0UEQ55gLnLOXx2haxFxUhWc3Aaq2I+ZbTjz1WGQfk/xOWaWzHwI5ev6YL3OIGASy2ZOGw6pQsA6vfQi460QdC0U29Gbl/lkhAhuprUj49UIaAPnMJVJ/DW0GdwS2gkI4mPMRXRuC61CxGE0lvkqtHshWHEevWmJv4EGbJzo7elMxH5PMORp5hKeuVszaNyrM4Die0wlEn9djYAryzjnrYHQzZAHaE0zHgCNOIOJ7XkSQr8XsDVLZ84cBalj81KJX+8QAjbupRdlThsBaZ5g9Cx6kfEfCOheQHEBU7OceQKC4FpaO8p8bilIv6f4JVMZ4yVQ1DGBZY1XIXQEEFxDK2Lm/tDmKfansThzV2h34xBa82aNQsBSM5jbkfFcKPo7wXLTmctk7lDfKovoRZlvrADpCBR7Mpcw3gJpXsB1ZTLvj5BuRsCGRm9S5qMRinXep7ejzN3bgOJ4GktmPhIh5QQjXmUuYuaB0P5jxdnltoa2E4Hex1zkzu2hzQrY0uhFxoOg6GYIep5mbpLxDkCxNb0dZb4yAtLfCYY/x1zGeAIUdQruoJUw3grpP5Z7nbnMTu0Fiv3K0HgDQvP+TGNh5gM9kK4GFBfSmnYzJGJ75naUeA4UrXVnBSK+RmPJzGnLQepR/LYUnXtBqxCrMeSFMsZD2gwgt9OKmPk5aHMU22R6mX2h6Hbsw9y0m/rsyMw27Nyu5W7HEGmSYoO59DLG06Goby/mMplPjURomgY8XgEI7qEVJZ6F2F4Un6GXem4UpBkS9DYaC42TEdDlECz3On3AkvnEUEhLZU6fgBClGUGG3kljycznRkDqEoyeyVyCxssRQ3NCFOy3kN48xSVljNdC2gsCLqQV0XgBtBk9OJPGQue8Cd0PKC5gGrAYvw1FS9G58IcjEaI0LCguobHcQVDUrziHqQyNP4SGJoQYsMa/6SzZuIjjmYqcb68MaS+Cj0xjLmLm4ehpXA926HUvMp4MRRfk0/SBinPB2ggtRjdOP2ooJIbGRMHvaCxrvAoBDQzY9EN6GWb+UhClQUEFy/5gPq0SAZskegGNxyO2Fyh2Z/Yi56Kd0dOoHmz2FjMLjZMh6H4I5B7aAMV4BQJajW7OJw9eEhI01KWKEX+nsaxzztqNQcDFtFI0XjcWQUN9QYNg5Ckzmc1ZBYHcz1yU+fQwhPYCxU+YiuictyNiaESI2HIWMwszXx6L0AWB4sABi/PT0NYj3ZzPn7ISAI0qUkNEowA7PE9jaeMhUDRUsNobzKVonHPikkCIKiJ9RERjALD691+jm7N846D4Cq2Ixp+hJ7QXEb2OqYjZFx0JiaEejYKD5jOz0PnBNlB0Q4B4H/OAxHg9BP0BmbPz3T/sOgJ9Q4waACBsM9lpLN3Lc6BosOIQWjnmzGe/vCIEgKhqEACC5T//rwV0y6y3CYLRM5mLmPkVhBikjSBghSdoRcyZf1kJEqKKABAJGkWw2pXMmYWeeTAiuiOK3QYozh2h/QSZjeRrfzl685GKvjr6k996KDNnlk68aSikUQg4h6kcPZPvXnXipNE9qDl0xU+dctUckpZZfxOgOImpBDPPWRYiGjWItAco1nmVVkQ3zvneWAiAEIKg7/q/nktzFrrxJCi6JAj4I9MAxPg3BLSe5xqkJyPJOVOvvfKPV1z7yFw6s7F84sPLI6DhInEyUzkyG0nOffLWyX/72+Tbnl1IkmbORjZDEG9hKuHGN3+8YUQj+y8o1p/OVESac/6/jtx4tAKQEatv/+27eunG4px5MhRdE8GKLzMPOJzz1u8XSPMaJHMylvSUneUTHx+LgCYKlrqWqQ7SzVjWkzlLmpU7tGEIWGsWrYg054eP/P7QT6y5TGwXUKz1DHu9iG4k7fUn7rvr3kdfXkjSLbPYPB0BRfcEik9/6HmgkXgyFC3nnPEks3ktku5mKSUzd9aZE+8dA0VTA4b+iZbrIOmezVIyy+4s6eYsbTykcVB8Yh6tBN2cJBe+8+w4hPYAxQpTaFZEupmzMCdzFnviGzsgSjcFikOZ88Ai8R8QtJ7xVv3ZAmbzgsZb5hVLQ9HkEPAtevJ6GupmJO896wN6iYOaAMUnZzN5Eek5JXcuXKdtQEV/mGm5iKTnbGY5O8u6Zd44DhEN7lpAcSzdBhK9fGBUP3EnsPYfeumWm5KNC09ECGi6KHaZwWxNcjM6516xAzbsLbVfMxCx7kM086K+njl/rfaBoPjk48yWSzTSLfPdrygU3RZEfHYeLQ8UcuIDYxDQL9yBHsGGly8ks3mDPGVyynqIggqKYvT5iW7eIHdLTufCm49eEYpNy+3bFCiW/MFCejIvQefCBqRcmPhqVV5nyrUtNQWiWOLk1+nZvEFuRn5w4SpQRTNeYcqFqTI5W65tfL9TQcSEe+iWfABg5vz7SCj6ixBUsMZZr9KZk3k92YzOB/cUqKCaKph4tZE5WfYS7tksGUnnW5OPWR2A9mCjcrs2ByFg7Yvm02nJsnut+XXtzszCzBkjKvIGM2t75u7NADRg9JnT6MzJch3ZktH57nkTICpoynRmFmZ+viKks7Zz0YROBYp4xMt0ZktW/kPeUK1srZ2SuXPGlxAC+g9AFRi2z1/n0Em3lJKZWUpmpHPeP3aKUEVlgwKb/W4mnWTOZmY5O2unmdd+Z9tRAEIMCNgklfpMkyAqWPWUuz9g7Zxz5sK169nunRmvFc6YPXVYNZZ+9K2ZrxXOnLNdcyBRsPTe/5jDvtks9TXLTpILbz1mDEQDmimID86e8VrhjHd2r8aar70287XaM2dNW6tjQQhY+otT3mPdxpur1Q8uuu+EkVBBvwKEKMDoPX/9wDss3/vCXw9bGQiKSmsAhu/8sztfTyy2t1+498rvfG6TpQBAYwCAgM1zicytmgUEBbD6Ab+86ek3F5Gk843VywGhp3RERXvKBzQ7RAGW2+Nnd840lvU3HzzvwHEANKDpsad0QCWlp7ygc5UowEq7fOPiyTfcWPb6u35aJeeMa2+6sYWvveJnB62rEBX0N4BEBRBW+vgRP77sPzfcdMNVV/zm9L3XXwpAiIKqBwWA5db/9OcPOeLQL+6745brjV0KNUPUgNoBE70EuRlCs4AQBQCGjFlr4y0mTdx0/XER7VdiAIBRG+x4xBln/fK3vzr7a0fvuvEKAkBiQJdXYkCDtTKJ5yKi1SUKWrkOgEQV1K0xoCVFY0CdQWMMgrKKj7HI2TuhCgBCVEUTpXxVpM4KAAhRA+oVjQHVlDorIuU7GwBBY1Spt1rnoUdaOMSoQdDaLX2DaoxBREKMUYOglSVocQiC+hWfppeYO64ifSWEEFRDCPW1UQmqsbZqCOhyV+l8DNVqCvrrtnaq2JmZtTNnjYZU5n/vVToHEe39IiL2ppV4ceggEOM/15k0sYpbTFoB0vl8ianEwxAM+qhu4rGInc9JJYxTEBYrUfyo1MXQwSBe0V4e0wldSCtI/O7gkKomHtv5BEwpdSjiYiXAY8y13LktdHESwQpv0Au4cDzC4iQBm9BZO/PFoZBBK55z56U4iFZgnIyAQSrZSNJyx/V7poLE7yEOTvFM9r72Wi+ZOypBz2PMBZm7QAeluPHhI9Zabrl1jnqU1kkFfJT0Ws53VkIYnOLfVgggiN+nd1CKXzCxtvFGCAajZH4ZGoNIiIpTmDumgLGz6SVOgg5GMf4FUVAzRPyD1ilFnEdjbefCdRAGoTjTxggoVEx0emcU8Vm6Fxj/g4DBDdszewsY74KgWBDuZy44qqOJ2Gg2nYWZO0MHOWxNb4XEc6ElEHExUw3jAR2M9GDtl5lZaLwegkGNAWstYCsYf1DPLwqcn4F2KiHio9NpLHR+OAlhcINg6EvMLZB4Tj0X1nJ+sCpCZxJUcPgCGosTfwTFIMeAK2ktYLwdoQxwD61P5sMK6URUBatPZs4sTryhBzLYIeKQlnAumoBQFLCJ0fsk/gqKjiPEIBhz1lyaszjx2ZUQMNhRsMIsevVovAg9Ukt68AcaSbpza4SOQkJUAWSjX79NzyyZ+Mo6UAx+VJzF1ALuPARRRSTEiKPo3sd4AwQdggSNUQAgTvjyHYluzmJPfHZtKAZBClacQa8enb3HQgBAcGKis2/mdgidgKoG1By22aHnPb6IdMssmY23jYFiUKTiYFoL0DNv3uMjQ4eO2etWZmffxAsR0An0XWr8p47/3c2zMkkmc5Z0c/5iCBSDJAMuYGoBeibffuLJd8jMmsbHl4UM/ARL7XvGxbc+/z5rWsrO0pb58s7QgMGSgiWmsLcFyJxJMmfWNL6xAQI6gWVfYybpliw7y7tlfvCzkYiCwZMBI25ir7cA6Tk7a3ri7C2h6NfObBMI+BsXWXbWn5Oz98r1EBSDKgOWvJKWW6GkJ764MSL6t69zkXk7UJxAY/05GbnoL5sDGjDIMgSc2UvLLeOWedXyUPRzh9HdU+7/AjYnvZznlOl89ay1gKAYfCkRkx6ip9wSbplvHyei6PdXP/k+Iz3lfk4w9AXmAvecjHS+ecVewwBVDMoUxdCvvEG3XDk3Z+/FY6EB7TBs/IOnSOZF/RoCLmfybJbMnCTTU+ftOQpADBi0GQKW/+4suqdcIU+ZfP8vG0FU0AaDCtDzyd9Pp/H2/iziMBpr59lTzz10/QggqGAwp0TB6BMfpjMn8wp4TpnOV89eG9CANikaAQzf84/prv4sYN33F8x64f7rLvnGFyZ+RABANWDQZ4iCnq1//aKTzMncG+ZuKZPk63/YYxiginYqqgBW3hb9uo4ds+xSgpqiMQgGh4oKMHSb7941j30tmWV391ruOZv1GvsufODnO40AEAParqiiLWqMqoJBpaIRgIzd7ac3znIWZuubnbX9zVt+ue9qAYCqoD0H7eeCiAgGp4rGAAAjNjvwB3+5b9qcD5yF789++e6/fO+gzUcIAFEVLJ4ZNApqDllpvY9+asfdd991x09OXGfMENSUqEGwWKeEGIOgXtEYg2BxUQlBi0MQ/P/+5/+3LQAAQogQQvjbCCEEIQQAHC8AgBBhnBBCKWWMc87FNznnnDFKKSEJxghCAI4QAACIcJJQyjjnQiqltTbGGPtNY4zWWispBeecMUoSjCAA4MAAIMIJoYxxIaTS2libZlme585570PwPgTvQ/DeO5fneZalqTVGKyUFZ4ySBCMIjggAQIQJYZwLqbWxaZblzvkQirKsqqqu6xhjbJoYY6zruq6qsiyK4L3Lsyy1RispOaeEYAQBOBYAiHBCKONSKWPTLHfOh6Ks6jo2bdt1fT8MwzB+OAzD0Pdd17ZNrOuqLArvXJ6l1mglBac0wQiCAwFAOCGMc6m0sWmWO1+UZR1j2/X9ME7TPC/run2+rusyz9M0Dn3XtTHWVVkEn2epNVpJzhhJMIJHAQBxklDGpdImzXLnQ1HWsWm7fhineVm38/lyvd72fd/v933f99v1erls27rM0zj0XdvEuiyDd3maGq0kZ4wkGIJjAESYUMal0iZNc+dDWdWxafthnOZ1O1+ut/3+eHp+eXl5ff/y8vz0uO+36+W8Lcs8Dn3bNHVVFt7laWq1kpxRkiAIjgAA4YRQLqTSNs2cD0VZx6bth3Fe1u1yue33x9PL69uPn79+//7z+9fPH2+vz0+P+367XLZ1mceh75pYl2VwLkutUUpwRhKMjgjuO+d3T88vr28/f/7+8+fvn18/f769vjw/fTZ9xR8RIEoIZfyj3PmirOqm7fphnJd1O1+u+/3x9Pzy8vr24evry/PT477frudtXeZx6Lu2qauyCC7PUquV5IwRjOEh4AQgTghlXCpt0ix3PhRVXTdtNwzTNC/rdr5cb7d9v9/vj8f9fr/vt9v1ct7WZZ6nYejaJtZlEbzLM2u0koJTkmAITgdBiHBCGRdSGWuz3PlQlFUdm7brh2Gc5mVZ123bzh9u27auyzJP0zD0XdvEuiqL4F2epVYrKTijBCMITodBgBAmlHEhlTY2y3LnQ1FWVR1j07Zd3w/DOI7jNE3TOI7jMPR917ZNE+uqKovgXZ6l1mglBWeUJBiC07EQIIwJpVxIpYy1aZY750NRlFVV1zHG2HwxxhjruqrKsgjBuzxLU2u0koIzShKMIDgdDwGAKEkIY1xIpbQxNk2zPHfOeR9CCMWnIYTgvXMuz7M0tdZopaTgjBGCMQLgdFgEACKcEEIZ40JKqbQ2xlhr029aa40xWisppeCMUUISjCAEp+MjABAijBNCCKWMcc6FEEJ+UQghOOeMUUpIkmCMIATgdLAEAEAIEcIYJ9/GGCMEIQQAgNMhFHx++t///M///M///M///M///M///M///M///M///M///M///M///M///M///M///M///M///M///M///M///M///M///M///M///M///M///M///M///M///M///M///M///M///M///K+vAFZQOCAAIAAAcB4BnQEqXANcAz51OppKJKMloaDSeKCwDolpbuF2d7iAAif8J/1XbBf09hzKnHXjL+hdMUebr785e27/I+o/zAP1L87r9gPch/VfQB/N/7x+0XvA/6T1Ff3T1AP5x/nPWt9RH+5eoB/J/7T6aH7SfBN/WP+F+4fwJ/sN/8v+J7gH//9QD/09WP1z/tP4x+GP+h/vX7Bdmh7B9n+br176LfbXQN/ad9Py41C3W/hD936BHqn9g80P6rzT8QL+W/2z0h/6PgtfQf977AX8o/tX7N+xnm2/Sv9H+2vwCfyr+2elv/9PbX+2H/09x/9Y//OEe0U7o3KvaKd0blXtFO6Nyr2indG5V7RTujcq9op3RuVe0U7o3KvaKd0blXtFO6Nyr2indG5V7RTujcq9op3RuVe0U7o3KvaKd0blXtFO6Nyr2indG5V7RTujcq9op3RuVe0U7o3KvaKd0blXtFO6Nyr2indG5V7RTujcq9op3RuVe0U7o3KvaKd0blXtFO6Nyr2indG5V7RTujcq9op3RuVe0U7o3KvaKd0blXtFO6Nyr2indG5V7RTujcq9op3RuVe0U7o3KvaKd0blXtFO6Nyr2indG5V7RTujcq9op3RuVe0U7o3KvaKd0blXtFO6Nyr2indG5V7RTujcq9op3RuVe0U7o3KvaKd0blXtFO6Nyr2indG5V7RTujcq9op3RuVe0U7o3KvaKd0blXtFO6Nyr2indG5V7RTujcq9op3RuVe0U7o3KvaKd0blXtFO6Nyr2indG5V7RTujcq9op3RuVe0U7o3KvaKd0blXtFO6Nyr2indG5V7RTujcq9op3RuVe0U7o3KvaKd0blXtFO6Nyr2indG5V7RTujcq9op3RuVe0U7o3KvaKd0blXtFO6Nyr2indG5V7RTujcq9op3RuVe0U7o3KvaKd0blXtFO6Nyr2indG5V7RTujcq9op3RuVe0U6F92inbSKc0B/qgPNqqH/uRi3UW3jcq9op3RtuGZJB4kZXA3jcq9op3RuVe0U7gBfxwy0fRQi7XxqXDyDAQHyi4IM2jcq9op3A+0iykKISkzwHbQC3KvZ1df5/6lDPCYYEk4psKAWeNUM/wsjt5gZ10blXtEZMsG8qJAM+sDKIy66Nyp08L3SETCTF3yWM2FALNCbB/yBYBqJcFE0rbU+LNMTU2HU98OdlKsyziD6CGaQqyItA4OfDe5Cd5YSDCBbU0XfmcqTkkulgz5B+VhQwh4NiLGXSCHPDH4CB3Obuxw/VC7bFMGkexohATN5v7sD3B+y6qmjFIpoJyF4u0NcfOwAw8gEjQmsxg/i67H5WvACwegjCKLud5O+e7Hg8z3Vezz9ojJrsWRQ5CFU3NDcq9p4z+0k2QPe9nf5101/ZiTP2WJFCyf1JWxwwh1QwBUvv8cb9amh1F9nuqwwhtsOPdCAfQR6Aro++HFMCAoEpiQp4FhQJpCTEvkRDGv3mfMVhswmkSZwuHg62HfeKGM2DUEYupsDCq4G8blXs6MMv4i84MkZpYJRl2u5WU8eLYzvkk3Tgs4uqycXzPsmnfhdsl2zmgzyP4xEWM7/znhaP+JujUgXsAryNfcjZeqPFx8cAOTaziZrTf8961VA3jcq9nRLYHfgbQ2R9fS6Hn9KB2AWxN2l4seVl/hSKaYJc7YS7c0Y2vB9hjnOR+yqazQSbswzz3DtZePbI4CNp/c5AtLBSUhucOzeGIfFO6Nyphsa+bIO7pjHybvLf////zo7DWcEBWmxZvSYDoX+03ZM+3KLpSTEBVTzggsiMt2eZyulXKAZAPoE9VcvqCyp+qgTBMQyTuC2MJyKLDZ9YENNcoROUIlpEWw5dCuxl1z9m8+4IDpI3qEBdhKmtbQC3KvWmlAL06jUsbxZQIMnQhTGsSvgN156KESlICUOvbEl+ztjV032JGWGDNEeD5mAaz43GzF7eQHJeSweYLGjBZuseO9bQCG7MgDJCQ4iGV+VAklBk7rq9aykC7kx4PX+TS/GqPH84HxwqFquSV5gQHWEiUV6KRVAsNG+7gQVL5Igu8HG09M8/aKdHX/CtQc3wdFFuEjjEalzp7A9DoiG0jktUBfeKgV5uNMa8/RkcZg6zRh/cyQItlmwn9mZYXYYWeftFO6NyQDmN7O9s6jHn9ykC7W4mZvgppJVMNLrW5OKLBVKviXwAoRVz3ecTIy66Nyr2indG5V7RSrCVLr3/QvGZKsOr9yipOqozTTfQeZFMWEffxL5kUWEs5YjHTjB8AW5V7RTujcq9op3RuVesI29HJF5ZQ1TmT2cjL2uBfW/8i+PQIR3g2LRM4zglBoYYT9JOKbCgFuVe0U7o3KvaKd0blXtFO6M6ltffFZ0rqAfSo8reuidWnFwQBT+z0fLkYV5Uzz9op3RuVe0U7o3KvaKd0blXtFO6Nyr2indG5V7RTujcq9op3RuVe0U7o3KvaKd0blXtFO6Nyr2indG5V7RTujcq9op3RuVe0U7o3KvaKd0blXtFO6Nyr2indG5V7RTujcq9op3RuVe0U7o3KvaKd0blXtFO6Nyr2indG5V7RTujcq9op3RuVe0U7o3KvaKd0blXtFO6Nyr2indG5V7RTujcq9op3RuVe0U7o3KvaKd0blXtFO6Nyr2indG5V7RTujcq9op3RuVe0U7o3KvaKd0blXtFO6Nyr2indG5V7RTujcq9op3RuVe0U7o3KvaKd0blXtFO6Nyr2indG5V7RTujcq9op3RuVe0U7o3KvaKd0blXtFO6Nyr2indG5V7RTujcq9op3RuVe0U7o3KvaKd0blXtFO6Nyr2indG5V7RTujcq9op3RuVe0U7o3KvaKd0blXtFO6Nyr2indG5V7RTujcq9op3RuVe0U7o3KvaKd0blXtFO6Nyr2indG5V7RTujcq9op3RuVe0U7o3KvaKd0blXtFO6Nyr2indG5V7RTujcq9op3RuVe0U7o3KvaKd0blXtFO6Nyr2indG5V7RTujcq9op3RuVe0U7o3KvaKd0blXtFO6Nyr2indG5V7RTujcq9op3RuVe0U7o3KvaKd0bbAA/v/G6gAAAAAAAAAAAAAAAAAAAAAAAAAAAAAAAAAAAAAWq1k9zm65ytM+Ie2CZ0BXRdTbaDLEE+i2PYKIXzR70nwBrmyLn72Cl79SvZtX/yHQL3eK65FtUaRVnAa46fs/RMSH4Z3ggRCONHuDhTMT0joCM9wSLoGpVyf879wxzLSfUBFGpj8x7U+yMRbSqP+AcYSaAunrJ/pNFvEHLGd9+yPgPsnxXb9SSCd9n2etetjdyg9ugraguWBMjeguGKrIUPzh02KwcGlx22ewdqIavRIcyidqkrJcAbUzEAEs9DNPrZV2POfn0xNfCfOfLTZSgqH4TwHBdY68Dfwlso3AdL5pXVbVIIg/BOF3egKrq1jSfMLspSBviHV9gVavYa+kraHM23FOY4K9yIbCxQIcINBMrdjN9kxg3v6AQauPRCH7kRc/eJJAAnr6rFWS902rb1WRUv6zEE/1gtwWpWx12tQ7etlbLKBAlltplfQX3S3KcZ9KNN7hMkxGmuCriW9DInXGfOVYLED18DfozOxhf2x42mtM03FvEIQH2QZ/NtRhd8nvcY0ap4xwobkluZcUHAGeEDiDCmDEfUea+HIW7puKAbWz8DBiQfFJGXfX824AKrxwqJi+JoQQeGC/eq/z348pQLWtaemcCtrgcOQYUFguAUy7pwaZ6esMs5OiSdSO8frWFwuGM79OriGKU8TjYvPdeOTVCjD2x42o3DrQs7YiXM4uXTvJzDbMoEJDLeKiR6uT6/9BrUKrGvchVCyG1PuoNyfUfLHHXJON1iidZUDbKipbboKfIkuSTFBkgtIbXrLOk+pDITXU940fuJYIBer1+7bfKBCSQrtC5uTwih6DugcgdIWylPLmkCfkU24IE6NsMkW549kvjNKKMqxwRoEQyvu/cYr1NRQW6NoxpE/5fDdI8++rOALHxozM+ureAyzA/cbV2RcNh5uGZAHNSHI3EJCXTedfT11JSRMbi03jO5HdBSFthf5039hBZVN9t8862Rt9am7iT8qlUHoI3KB0GIITQyLEfyThuc5fih17nHX/NI/r7I/7wCcE2FT5qYgNoEBoAQPX6PkfLp0vwHI2Zp4/jyJmhJr+wf2zhbPTbOxgq0M5xNEBgoH9bD8Q6OIIE+iKICRZYL4Ex22esFsnfXTtX4nKvs1bt9ZgZgTCgUainnPdfOl9tdcEjHPCf6CD4MMOjFdnE7WWfBByM264Emry1FwBhFu3eS0+goPdwaWGGXNRFLqJyjTdjI6+s3/5lBi4bY47E50CrEz+EI7D95Rzu/cfi7Zy4WzvrI9NtY6NwSse9NyZyCxvDWK27zIrwrikSV2SC9TBqi8/rtRRR/beOeY/6d2CvesO6kyA0Q+m0/4k0gqLeWoUrByj+iPIdUGPe35O4YJr3gJQYkNPIhrbiTmGuCfw96YUJw+QOcJSWKpFlUV4dG5LTyX7oMLeF0z2+X9HCCV5IrNGuH4pBDpuKo1KmQQYF/CGjomDnr3p5n+lGghDV8TLGde7TQgCQsZsJPTOWKl36NYavtphRP3Zu/ELSVKVXgWiVBX0fPmGvVBOSFuOKEmjSCWzQOHpFBF2m6Pwgwol0DfdNlAjdCGvhIEKGq/jnpF44Som2RQUnbxLpW36f2ER4ekQGFSh2zeDQ1OtbHWNoxokwQOd8FeL2x/oAywb6I3VoCmMSNmrQnrZG01LRkC7eaKxBxFYlbST31NEee6A0UKdFFOYVBK0tGCryispRxyigYNJw5BGHVzYoL9YfK/PBf1yKsI6+ZfcdFHzrIaMzUhg3hf9ZwQeh8/d6+dPrs90FIuxBn+YdwYOU/6js9y23LY6+jgKSrd+i8APRxMhlCCX8fBJpIc/W2q4qmYTo3SbP+CSNj1aIVjU3iHkl1AzDCG1DpkR0SF+rVC2rBAGE6OTQqY1M4+d3fMUIVqD2YggWaxpAyTgzi8iGBqEyImih4x05GehBcgdmTWIgImLeYmgQsKgMU4KXQUsJUtKNp3YndWYcJY44v7jl+sWOxqOoaTXJ30cx1EUxGH9QIzHkKPUhn3xPpWSdMBCpIFJ6z1EU10ZNdm0U4ZbcR9goTFix1bvAYPmbX4BBh/d3gOV948p1u5keWoawvFJEi0cjMiu6GuTPaQZmMbZIOHDwXfrey5vLWZCphwJ7p4dO0pzRK1Zke6L2PCKTqoreMCuT4NAc5pKW8hGNUJqMx6x1d96s6QIwde+UUjyc3Lyr1+9SBt32H2Kl/g9fw8nZ4zuJOLptsI6h2pVrSyDccy1leFJlfLFT5fNF8ngwBJvKi3n0XmqTHQzQEUKcJ/g7IlPmR1h0qTiD6mWMTkPPA9xgw1X/n1m1efgKu4xGNO7H8Pr/+tPxIQKQ+7qp5OVR4arx7/htSH1bSKWIa+C1FndDrzcRC3P+0NWegY5crbeatQ6OHEQ1RYU4WmdFe5Wvb+whi26JfUdwHEPzJbHi+x0qdLVucyGJHJ5NWsRHUWM4LdJAdKoGeCR+OTwcpQySECV4kYTC+sNKrHf7ZJyFmtYs+cpcXr+oepiXaR8btgXqM4UK0IKt8f4xB//rebnfD6r0N5YcAri0o0NlIRj3FXJlSiwHD827RzGi+E8DJQWThBd2rJetctWXuNs0zyH55aJq+W3YpQ24Jhva/c1fDoYK4ljHrVC893ayiWK6QMYc4uG6lh6lVbDwKhxlRFPt+uQARcHJtS7HuoDLhfCYlBL09QOjKtQaXnCJZAr85GP+pHZJvIZ75hFToNwTz5FFLCjELpd7oEICP5//yEaAk0ZMemF2Mimj92PfTVCdycmZ3TsyHYg01DKzuyZydXng0++ptMqJXCntj+yzXDL3CHj+z3bXZOxot5vRpyB14xr3bxEyNROrgX7o/Sx1mLJE9uSuzWawaeWJ7IAM+8ZtSdUrq6qSk9U2hyJ2Cmc9nFxffrhPUq5tZypvpgiYSARjXRUm//jAZcNgAH/ljE/UVNGE7ofADw39JgSHNXsNDn1cnLyJCfoBM92Q5anKp4mZQZIzEHthDXnyU42HNuK2iL2B8Zy68aqntqkQN4xxxHsNTN7dJ/VhgTOsQRJvPRYNd79kWVopcxAuODYhphW8ONt5zJH/B/mqXIUwYHJZL1L7uBoKv+2wmZdmO/9gPJKPdZFvH249JlOosJZJr+8bCS1VUnGBWy5cjXWYCd9/UOgh2T+c84HWF9HY5HqQzjWUD9EQkOYOSwFTOBRBCvWdYayRX40Lvn9rKmUpn9uftzfMl64RjHKN29MBUKRoqf9T1QAkdZRg88a4Q6EJBJOjGcpalbL9AomPwfAJvFLhenMo2PtaL+RK03yc0iqeJ/mdBnqUn5dkFN/IN3YRLvEp04QJegupT37AVp0A+RgpBK9Bu4zY9JM59e15FsmTSCCNExWJhnAOpyDbyVTQf8qj8RNdaGX+YIdqrPb0QUT5JMBqQzABAjrOl/pTqSWXPlPokDp6wQbDWqT1/CJAyIG3ZmztDHUSWglnWaOOPOARGjmGHdB/zSHoN9Ej3cvXlZOjUCNRn+Dx5bcw9adcQK0PsWe2awmPUkCwG2SP7vDZj75BU/FZYNnmOP9+2poncwTo8h/H93Bqm1XpH2utRYmYL2upkk8kkxKGsucz4g0xOHpl/yK5qovsDzFScExtGiD1B4aPfYn9s7WRBc7QDUak7/n/kwZdSWkvIJyNosqd7JikrTsZ+C1upu1Af6d9a5OhjJtc5YpomLBcKxsgY20WzurDt0LasQ4fbLWfmqJcohvKrqEiC/aS7fqWd2L5iUvpGp0e0GLfJIp02VMhb2YKcJN+K4EmkJAPD12NpMAXFGSvKFmWVrPi/ifgniXQo+sns7qqZCLBh3ZfFnAnZGNef5nyg3VLJtSAo+xlPfvC8GcLrjruFYbTEEol3Ek5AjxDYa5hCkIcgzq/o7bWDnNJdxrWxMRgsyq57wTNF2UfPfkU55ocqJ9QnjIZmkmzYWa/H9T+yvf9XqSOv8i9nB9UxHneky7zZUr2Nyeuzi78Y7L45WOxv0WPbWWZUovsjr+fnsXv1WjOzKCI6d5OsZHDe4JccqI0T63oukro+FcMt0cwvatcuPpQmr/9CdleMCi3RVIPIbTEeRC6cwETjeMSkghkVUqs9WG/rlMvr3IxMQ32YYhE/ltm1y1min1P+d2TVQnF6CQshZZ1tYuR7LfWvEMfgljhgK3Kyv9RHO+xOY1xjSO2XuE2cm4rkxT5MZg2qwLvc/6jkHo6dCiC09fyghtoH1n35kuMcRx1WsU2gK9T+hM8Av6L322JHnuYPc+cNeuSDLy6CRaVAmBUiq37W7c6Rz+RKZe61fhfLktzNCoJB13I4qqY5UZz3OlyAtfe577ArdYiusApDSOMg1tlg7WxiWDIsyW/xzk3oRgmspxD0EO4/3Hlxb4A1xUmkOU7ejX1TR3G0T12Mb/ejmM8r3XAOAiDKvrG31Xe9aWvgScPKo5bdLd57rADmhL1U+DXY5l5Cp2pJ55eijcCp4tfSsjGHYwK0P09Ds8qh1po8WC8cT3rywdmhT+W+KjfCUzqf/1AsH3EkOgqyyG3CaRHz8NRnJJVYzvEkREeNXEbjnevrh0J/rkNG9o0AvychtbNBRUUNxi2fjjjEkDqwpEVV4c/uAMxD+UXrdGASfXwvnLsKcvwkQFYdiFGekA65kulKmp5J2RmEhsSY/es/C/dhSiZq8bFYhnv92CEmA9dMyCBgEuJS+xz1kJd9YMV74SX7JXE2fa7B6vuDXMj+80yWMHo8pyM/4xLMi0zlclpx5libUofm4F1d3R1MosvsdCxMJMBn2IJFM03tJ1Je7I0NQGb9WBU5z48hwEQTprvDwlx1duBZSWVDYbY8UUMDjelkuiCVh/TE9s9KOTXgsB0lPIJIQWnOE1z/3j9yNACHIJego7dN8uSlawe/7c1iaxTTAG4xSa45u0jTEagUoElSKaJly6y8+PPZDOm+sKo6bEUYwq9yQsMVvaGufVUZteaaLp6sulKu6kg9CTPvjwkf1k5S6WwO1X0hObeUVVFt9BvN/4NHGcKW/B9xwjx3OR+D9sO441y3CTfrABq+aJHGQOe749HNMeSbUtuALcjNuKtFgRhl6QhG++O/+uk0UpWfSHAy3UVPdLAqJ5PfFaHN7vbk9/0skFJQ/uhDDr423wXnDqUvMwZJ0pSGTpLIYVJmIXEvT9teydSGXQYHbFiD0pGxzQbWwAhN74KYow2q8IQS+LkHCblrt3xQMHoYeY+sMKqG7TLM4W7Ae0iJvDR+k1TzKX7XsQHga0UNsfF+5N9rzwmS22rEKlGxc7yTeh6LR8AACXbd9j1Ap/z6eDV0sRPS4McBRiBTeqi6jLNXzeksKR/8SyLRvvmKjqhpx6usYJEL6kf9ONEnPj7gk6nL8l8WnPI+nwTP1TLmlgfwOsG2kQCmXrCqv7tx+21T+tYGMHbNRep4MEFcAgGZ2AAdx6CmuqFfWQUQ+kTY99yl/sSZ2EahfqJTW4P68xJtCsKBvKYBVzqUhQLOLIC7TNkYMj69rs9+AXH7tzB4QEx39xzJJ0cU0htIN7m7/HgvrSDj9OzDBo7g/o8kJvyAfcLGrwcVaszF//2pdhEhwvYDo5WVVNK8D2d7GbAVUudHQtE6jD8GU/vRmexD2f2qJR3hX+upYnsOhxafx2jffPGNt1aSbfYnCQRahljfTg+nPE+kFdVcCWEEgSurGb1APoHy+GhlxHN3M0Qzhvh8w3Sm1kUI9zmuxeV2pNXiF7e0tuu42XBBioHqML4B4jE8VTrIwMi9PXKhYOI5LWHTF3Og5l4xg5Bh1d6mWNJhGqU5KMlcZG8qi1ow/YfzRZUYpNHagnoz22OMngu6IKdrzCHtEj/3Dpx2erv++1T7foKIrmcKDWO2Kubw3floPpbJ+c0hCCkyAgzJj7jR7ogj4IGRIfFDrPAfskuWHQ+bXcDiGj6WS+v/Ovq/OP8vQdMm8nNKpLg5btDVGGHCFqnugKqkNjpBEk4bd4o0g/UhJXWnEj7LHtOn3Av0EOcrUwr4GhwZ1Snp6jz2v46OZaJaIjmTZNoT3QaJMkeNqs9rfkYy7gGrj+UqCwANMCVEn2kzKdY1KyWUxCJFLVi+qCK+NVAsAHoCiHT/YO8kDsZe8qOXKcu3xL+bsg4POtbjUAoKD0A/EP33kafETljHgcHd+KssEYXtGeXkW6qZ1M8h+/4CCA9ti3QQbtSio3vRE36+KPRz/yfD+C6PcJmH9fJhMvv31RdAz8svQIGDe8hCSKMz+xwokJxeCKgCaabx1C8zpzSWavPpe5YR9WHvl1NYESw4azn7h0XnwrYL6D00fMFIh1qTleC2srKH+UWCCnZby8vWs8Gj6VB0aJdHQ784WKpQoLkTCABV7GNgaGRAw26dL4cl/LlymI12DE6K24SCi80qTZrJdqSFNZEfM1AZakJIyLhdJwda24FW9KlFesW+/3R79c8n9BI2xEGRTZS3Qd3APPTnzvtXq0NpaU+iTjmvWfu5RTrazndBvpfU5JPsa84GfMPOkEyOB2qrir6bKKiSoX9Vz5+h0e2t6wAIl2T6dtcoamOJGXZDshgMwVjXjx7uwCs9FwrsFa1lbIm6ZrkGyVLJ2KLtazsxKazGhBu/qHLkIQ41VJXThWBA3JZVToGj1Pnb7ZNjbRX30T8HRG7Np0AjIJkzlR/baYR4egwQ575ZiLCPPVgrVjnU97y5SiOvKXLCFr3LdRTzEvvP164jEbTatAlLQvD9pnglCUMmX7kq7Z69hAu3BZwwJZMm/pybRyBbEsvpKa8ll8X6+QGZH7LOOHeGXwTBxgCPwjKK8NcaiDFwMb0gwy1snhq8qZPOmP9pIlkMD5d0UOUVmUGDxF+m3xIRwBDyS0tav5+K6zPanmpROXmi3nb8Qr50flyZxIlLpsKKn++c471S453zPlYw0tCm5h6WjTC0ID1Jb9fTYlsah2VgDnlyu/z4wMTDyj3Ha6X6ZxZ2ByOAGL2hECfOPtdhzf37sF3DyudiH5Z9AGU1xOQbZtpebVhBqUvxcqdHnATYcCHflYwpiLoMinb4aXqgbDc1ph7KNDHq20Y7V+pIA8ofhXmkbzq8q75qmUvJPet4DjZCgIaGeZllN+LgzCTBwlC1euL4qmDvHKIwHe7dU/Mpw1FqLE/jqAOJdjbZLYP0a1NB+yEmRFhBPq1ivdexLHQUwOzZpwJxoC2ZSEZt7jBmKiP6OeS4zemvH2Eq3+IR+AzmcAApk8jWsAX+Ja3anlj+FkNwuL/vh9e1oWgTiQ4Hqt/BCnqpmtEa89uxxHrwoj+l/BOCgzA7OJfLnpagHtr4PKkaQX2FGyO5tYoT5PrRRZGDZRLxJ1QoXuqnEbshapeASnbQLTG6jCZx7paM/jUhpfMdII5eFMSN56Tbxl/IVV0T3owKRcHmx6glaXj3qQyTFwJKpgjX2s+hPpj5PMinbHVtElHv1vun5rjIs7gSvPiVTOB5IORRbDGIYYaXefj+hNQZ4hw+zzapfqdpnnerQ79aad9rgTIOyGNoDDpeCoW/icTNI7fErOQRd3wnRv9UhNE1KPv4W/oAMilPiVCKLSEw0zpzE7Ctj/JTzzvL7yXM8YclgMToPb1HPJQMmJbxoQAAvT6ZVEVada2UNeP+AwUDXtM5GE6Vl1vnopqBBuxVQUaOBAnFOtMnXTy2vUvl5nq49Oyu9+usFHPv8ozMsmAiI4A+Klw/x/BFDAe3fjkLj/HK50X+LD+8PkaEFF+qGZcU2TZwAcwL0OD9VEbW2C62qcj0yYBelH8GHdRgAAAAAAAAAAAAAAAAAAAAAAAAAAAAAAAAAAAAAAAAAAAABFWElGugAAAEV4aWYAAElJKgAIAAAABgASAQMAAQAAAAEAAAAaAQUAAQAAAFYAAAAbAQUAAQAAAF4AAAAoAQMAAQAAAAIAAAATAgMAAQAAAAEAAABphwQAAQAAAGYAAAAAAAAASAAAAAEAAABIAAAAAQAAAAYAAJAHAAQAAAAwMjEwAZEHAAQAAAABAgMAAKAHAAQAAAAwMTAwAaADAAEAAAD//wAAAqAEAAEAAABcAwAAA6AEAAEAAABcAwAAAAAAAA==;" parent="1" vertex="1">
          <mxGeometry x="290" y="210" width="100" height="100" as="geometry" />
        </mxCell>
        <mxCell id="hrG1Q1oF-J7TZYXYsf8C-5" value="" style="endArrow=classic;html=1;rounded=0;exitX=1;exitY=0.5;exitDx=0;exitDy=0;exitPerimeter=0;" parent="1" source="hrG1Q1oF-J7TZYXYsf8C-2" target="hrG1Q1oF-J7TZYXYsf8C-1" edge="1">
          <mxGeometry width="50" height="50" relative="1" as="geometry">
            <mxPoint x="590" y="420" as="sourcePoint" />
            <mxPoint x="640" y="370" as="targetPoint" />
          </mxGeometry>
        </mxCell>
        <mxCell id="hrG1Q1oF-J7TZYXYsf8C-6" value="&lt;blockquote style=&quot;margin: 0 0 0 40px; border: none; padding: 0px;&quot;&gt;&lt;b&gt;&lt;font style=&quot;font-size: 14px;&quot;&gt;&lt;i&gt;/iac/&amp;lt;ENV&amp;gt;/svc/{NICKNAME}/runtime.json&lt;/i&gt;&lt;/font&gt;&lt;/b&gt;&lt;/blockquote&gt;&lt;blockquote style=&quot;margin: 0 0 0 40px; border: none; padding: 0px;&quot;&gt;&lt;div&gt;&lt;b&gt;&lt;span style=&quot;font-size: 14px; background-color: transparent; color: light-dark(rgb(0, 0, 0), rgb(255, 255, 255));&quot;&gt;{&lt;/span&gt;&lt;/b&gt;&lt;/div&gt;&lt;div&gt;&lt;div&gt;&lt;span style=&quot;font-size: 14px;&quot;&gt;&lt;b&gt;&lt;span style=&quot;white-space: pre;&quot;&gt;&#x9;&lt;/span&gt;name: svc-Q,&lt;/b&gt;&lt;/span&gt;&lt;/div&gt;&lt;/div&gt;&lt;div&gt;&lt;div&gt;&lt;span style=&quot;font-size: 14px;&quot;&gt;&lt;b&gt;&lt;span style=&quot;white-space: pre;&quot;&gt;&#x9;&lt;/span&gt;port: ...,&lt;/b&gt;&lt;/span&gt;&lt;/div&gt;&lt;/div&gt;&lt;div&gt;&lt;div&gt;&lt;span style=&quot;font-size: 14px;&quot;&gt;&lt;b&gt;&lt;span style=&quot;white-space: pre;&quot;&gt;&#x9;&lt;/span&gt;...&lt;/b&gt;&lt;/span&gt;&lt;/div&gt;&lt;/div&gt;&lt;div&gt;&lt;div&gt;&lt;div&gt;&lt;font style=&quot;font-size: 14px;&quot;&gt;&lt;b&gt;}&lt;/b&gt;&lt;/font&gt;&lt;/div&gt;&lt;/div&gt;&lt;/div&gt;&lt;/blockquote&gt;" style="text;html=1;align=left;verticalAlign=middle;whiteSpace=wrap;rounded=0;strokeColor=none;" parent="1" vertex="1">
          <mxGeometry x="50" y="130" width="380" height="130" as="geometry" />
        </mxCell>
        <mxCell id="hrG1Q1oF-J7TZYXYsf8C-11" value="&lt;b&gt;&lt;font style=&quot;font-size: 16px;&quot;&gt;Configure External components&lt;/font&gt;&lt;/b&gt;" style="text;html=1;align=left;verticalAlign=middle;whiteSpace=wrap;rounded=0;" parent="1" vertex="1">
          <mxGeometry x="90" y="310" width="330" height="90" as="geometry" />
        </mxCell>
        <mxCell id="hrG1Q1oF-J7TZYXYsf8C-12" value="AWS Cloud" style="points=[[0,0],[0.25,0],[0.5,0],[0.75,0],[1,0],[1,0.25],[1,0.5],[1,0.75],[1,1],[0.75,1],[0.5,1],[0.25,1],[0,1],[0,0.75],[0,0.5],[0,0.25]];outlineConnect=0;gradientColor=none;html=1;whiteSpace=wrap;fontSize=12;fontStyle=0;container=1;pointerEvents=0;collapsible=0;recursiveResize=0;shape=mxgraph.aws4.group;grIcon=mxgraph.aws4.group_aws_cloud_alt;strokeColor=#232F3E;fillColor=none;verticalAlign=top;align=left;spacingLeft=30;fontColor=#232F3E;dashed=0;" parent="1" vertex="1">
          <mxGeometry x="410" y="140" width="260" height="240" as="geometry" />
        </mxCell>
        <mxCell id="hrG1Q1oF-J7TZYXYsf8C-10" value="&lt;blockquote style=&quot;margin: 0 0 0 40px; border: none; padding: 0px;&quot;&gt;&lt;b&gt;&lt;font style=&quot;font-size: 14px;&quot;&gt;&lt;i&gt;/iac/svc/{NICKNAME}/runtime&lt;/i&gt;&lt;/font&gt;&lt;/b&gt;&lt;/blockquote&gt;&lt;blockquote style=&quot;margin: 0 0 0 40px; border: none; padding: 0px;&quot;&gt;&lt;br&gt;&lt;/blockquote&gt;" style="text;html=1;align=left;verticalAlign=middle;whiteSpace=wrap;rounded=0;strokeColor=none;" parent="hrG1Q1oF-J7TZYXYsf8C-12" vertex="1">
          <mxGeometry x="-15" y="180" width="290" height="36" as="geometry" />
        </mxCell>
        <mxCell id="hrG1Q1oF-J7TZYXYsf8C-1" value="&lt;b&gt;&lt;font style=&quot;font-size: 14px;&quot;&gt;AWS&lt;/font&gt;&lt;/b&gt;&lt;div&gt;&lt;b&gt;&lt;font style=&quot;font-size: 14px;&quot;&gt;Parameter Store&lt;/font&gt;&lt;/b&gt;&lt;div&gt;&lt;br&gt;&lt;/div&gt;&lt;/div&gt;" style="sketch=0;outlineConnect=0;fontColor=#232F3E;gradientColor=none;fillColor=#E7157B;strokeColor=none;dashed=0;verticalLabelPosition=bottom;verticalAlign=top;align=center;html=1;fontSize=12;fontStyle=0;aspect=fixed;pointerEvents=1;shape=mxgraph.aws4.parameter_store;" parent="hrG1Q1oF-J7TZYXYsf8C-12" vertex="1">
          <mxGeometry x="92.50000000000006" y="56" width="75" height="78" as="geometry" />
        </mxCell>
      </root>
    </mxGraphModel>
  </diagram>
</mxfile>
